<svg id="图层_1" data-name="图层 1" xmlns="http://www.w3.org/2000/svg" viewBox="0 0 60 750"><defs><style>.cls-1{fill:#c7c7c7;}</style></defs><title>jiaopian</title><rect id="Rectangle-4" width="60" height="750"/><path id="path-3" class="cls-1" d="M43,722v13a5,5,0,0,1-5,5H22a5,5,0,0,1-5-5V722a5,5,0,0,1,5-5H38A5,5,0,0,1,43,722Z" transform="translate(0 0)"/><path id="path-3-2" data-name="path-3" class="cls-1" d="M43,15V28a5,5,0,0,1-5,5H22a5,5,0,0,1-5-5V15a5,5,0,0,1,5-5H38A5,5,0,0,1,43,15Z" transform="translate(0 0)"/></svg>