<?xml version="1.0" encoding="utf-8"?>
<!-- Generator: Adobe Illustrator 22.0.1, SVG Export Plug-In . SVG Version: 6.00 Build 0)  -->
<svg version="1.1" id="图层_1" xmlns="http://www.w3.org/2000/svg" xmlns:xlink="http://www.w3.org/1999/xlink" x="0px" y="0px"
	 viewBox="0 0 750 60" style="enable-background:new 0 0 750 60;" xml:space="preserve">
<style type="text/css">
	.st0{fill:#C7C7C7;}
</style>
<rect id="Rectangle-4" width="750" height="60"/>
<path id="path-3_2_" class="st0" d="M28,43H15c-2.8,0-5-2.2-5-5V22c0-2.8,2.2-5,5-5h13c2.8,0,5,2.2,5,5v16C33,40.8,30.8,43,28,43z"
	/>
<path id="path-3_1_" class="st0" d="M735,43h-13c-2.8,0-5-2.2-5-5V22c0-2.8,2.2-5,5-5h13c2.8,0,5,2.2,5,5v16
	C740,40.8,737.8,43,735,43z"/>
</svg>
